<svg width="172" height="28" viewBox="0 0 172 28" fill="none" xmlns="http://www.w3.org/2000/svg">
<circle cx="12" cy="12" r="12" fill="white"/>
<path d="M16.7273 4H14.3471C13.295 4 12.286 4.42143 11.5421 5.17157C10.7981 5.92172 10.3802 6.93913 10.3802 8V10.4H8V13.6H10.3802V20H13.5537V13.6H15.9339L16.7273 10.4H13.5537V8C13.5537 7.78783 13.6373 7.58434 13.7861 7.43431C13.9349 7.28429 14.1367 7.2 14.3471 7.2H16.7273V4Z" stroke="black" stroke-linecap="round" stroke-linejoin="round"/>
<circle cx="52" cy="12" r="12" fill="white"/>
<path d="M55.8027 4C58.1595 4.00016 60.0703 5.91081 60.0703 8.26758V15.8027C60.0702 18.1594 58.1594 20.0702 55.8027 20.0703H48.2676C45.9108 20.0703 44.0002 18.1595 44 15.8027V8.26758C44 5.91071 45.9107 4 48.2676 4H55.8027ZM48.2676 5C46.463 5 45 6.463 45 8.26758V15.8027C45.0002 17.6072 46.4631 19.0703 48.2676 19.0703H55.8027C57.6071 19.0702 59.0702 17.6071 59.0703 15.8027V8.26758C59.0703 6.4631 57.6072 5.00016 55.8027 5H48.2676ZM50.4492 8.88281C51.1052 8.54246 51.852 8.41799 52.583 8.52637C53.3288 8.63696 54.0196 8.98448 54.5527 9.51758C55.0857 10.0507 55.4334 10.7416 55.5439 11.4873C55.6522 12.2182 55.5269 12.9652 55.1865 13.6211C54.8461 14.2769 54.3075 14.8084 53.6475 15.1406C52.9874 15.4729 52.2394 15.589 51.5098 15.4717C50.7801 15.3543 50.1056 15.0098 49.583 14.4873C49.0604 13.9647 48.7161 13.2902 48.5986 12.5605C48.4812 11.831 48.5966 11.0829 48.9287 10.4229C49.261 9.76264 49.7932 9.22323 50.4492 8.88281ZM52.4365 9.51562C51.9136 9.43808 51.3794 9.52711 50.9102 9.77051C50.4408 10.014 50.06 10.3997 49.8223 10.8721C49.5846 11.3443 49.502 11.8794 49.5859 12.4014C49.67 12.9234 49.9161 13.4064 50.29 13.7803C50.6638 14.154 51.1461 14.4003 51.668 14.4844C52.19 14.5684 52.7259 14.4858 53.1982 14.248C53.6704 14.0103 54.0553 13.6294 54.2988 13.1602C54.5423 12.6909 54.6322 12.1567 54.5547 11.6338C54.4756 11.1003 54.227 10.606 53.8457 10.2246C53.4643 9.84324 52.97 9.59476 52.4365 9.51562ZM56.2881 7.40039C56.5159 7.44696 56.6874 7.64901 56.6875 7.89062C56.6875 8.13229 56.516 8.33428 56.2881 8.38086L56.1875 8.39062H56.1787C55.9028 8.39037 55.6787 8.16661 55.6787 7.89062C55.6788 7.61469 55.9028 7.39088 56.1787 7.39062H56.1875L56.2881 7.40039Z" fill="black"/>
</svg>
