<svg width="252" height="45" viewBox="0 0 252 45" fill="none" xmlns="http://www.w3.org/2000/svg">
<path d="M48.8945 14.1562H55.7628V43.4765H48.8945V14.1562Z" fill="#212121"/>
<path d="M80.4751 37.615V43.4765H65.3555V14.1562H72.1391V37.615H80.4751Z" fill="#212121"/>
<path d="M103.44 37.615V43.4765H88.3203V14.1562H95.1039V37.615H103.44Z" fill="#212121"/>
<path d="M118.068 19.6007V26.2588H129.167V31.5778H118.068V38.029H129.167V43.4734H111.281V14.1562H129.167V19.6007H118.068Z" fill="#212121"/>
<path d="M149.267 14.1562C158.983 14.1562 164.512 21.3193 164.512 28.818C164.512 36.3166 159.027 43.4765 149.267 43.4765H138.504V14.1562H149.267ZM145.287 20.0209V37.6119H148.932C154.42 37.6119 157.603 33.3404 157.603 28.8148C157.603 24.2893 154.42 20.0209 148.932 20.0209H145.287Z" fill="#212121"/>
<path d="M171.18 28.8206C171.18 20.7794 176.96 13.4062 186.72 13.4062C196.479 13.4062 202.215 20.7794 202.215 28.8206C202.215 36.8618 196.435 44.235 186.72 44.235C177.004 44.235 171.18 36.8618 171.18 28.8206ZM195.306 28.8206C195.306 24.0035 192.039 19.525 186.72 19.525C181.401 19.525 178.133 24.0066 178.133 28.8206C178.133 33.6347 181.357 38.1195 186.72 38.1195C192.082 38.1195 195.306 33.6378 195.306 28.8206Z" fill="#212121"/>
<path d="M228.031 33.2557V14.1562H234.777V43.4765H227.695L217.139 24.6311V43.4765H210.355V14.1562H217.434L228.031 33.2557Z" fill="#212121"/>
<path d="M244.375 14.1562H251.243V43.4765H244.375V14.1562Z" fill="#212121"/>
<path d="M20.2335 14.0352L20.0191 14.4959L19.8046 14.0352L11.6953 17.8693V43.4637H12.9291V18.6612L20.0191 15.3076L27.1105 18.6612V43.4637H28.3428V17.8693L20.2335 14.0352Z" fill="#E0B000"/>
<path d="M19.3661 14.7285C19.0112 13.0746 16.879 12.4795 14.9989 11.9547C14.3435 11.7716 13.7243 11.5977 13.2064 11.3856C11.0801 10.5174 8.66998 9.53334 7.31692 7.17149C6.43502 5.63201 6.43653 3.63634 7.31844 2.08924C8.11426 0.696237 9.45827 -0.0803668 11.0484 0.00660055C13.9644 0.153072 16.3127 2.69191 18.2245 7.76653C18.753 9.17021 19.2498 10.5998 19.6998 12.0142C19.7784 12.2598 19.8992 12.5299 20.023 12.8091C20.2767 13.3813 20.538 13.9748 20.5818 14.5469L19.3646 14.727L19.3661 14.7285ZM10.8264 1.24703C9.43108 1.24703 8.70019 2.16553 8.38759 2.71327C7.72012 3.88046 7.71861 5.38637 8.38457 6.54746C9.52622 8.54008 11.6328 9.39907 13.67 10.2321C14.1215 10.4167 14.7074 10.58 15.3281 10.7539C16.3096 11.027 17.403 11.3337 18.3423 11.822C17.9481 10.6166 17.5223 9.40518 17.0738 8.21052C15.3553 3.64702 13.3649 1.37062 10.988 1.25008L10.8279 1.2455L10.8264 1.24703Z" fill="#E0B000"/>
<path d="M20.9007 14.7303L19.6836 14.5502C19.7274 13.9765 19.9901 13.383 20.2438 12.8093C20.3662 12.5317 20.487 12.2631 20.5655 12.0175C21.0216 10.5894 21.5184 9.15977 22.0409 7.76982C23.9527 2.6952 26.3009 0.156362 29.2169 0.00989089C30.7995 -0.0724992 32.1526 0.699528 32.9484 2.09558C33.8303 3.64269 33.8303 5.6353 32.9484 7.17478C31.5923 9.53968 29.1837 10.5223 27.059 11.3889C26.541 11.601 25.9219 11.7734 25.2665 11.9565C23.3864 12.4828 21.2541 13.0779 20.8977 14.7318L20.9007 14.7303ZM29.4389 1.24879L29.2789 1.25337C26.9034 1.37238 24.9131 3.65031 23.1946 8.21381C22.7491 9.39626 22.3233 10.6092 21.9261 11.8237C22.8654 11.3355 23.9587 11.0288 24.9403 10.7557C25.561 10.5818 26.1469 10.4185 26.5984 10.2339C28.634 9.40236 30.7391 8.54337 31.8823 6.54922C32.5482 5.38966 32.5482 3.88375 31.8808 2.71656C31.5697 2.16729 30.8358 1.24879 29.4389 1.24879Z" fill="#E0B000"/>
<path d="M33.0708 13.6445L27.7895 17.8573L26.7418 18.6989L20.0252 24.0545L13.2322 18.6654L12.1749 17.8238L6.9079 13.6445H0V43.0335H6.9366V22.5817L10.9455 25.5704L12.1988 26.5028L18.3605 31.0933H21.6948L27.7177 26.6032L28.9663 25.6756L33.1187 22.5817V43.0335H40.0505V13.6445H33.0708Z" fill="#212121"/>
</svg>
