<svg width="22" height="26" viewBox="0 0 22 26" fill="none" xmlns="http://www.w3.org/2000/svg">
<path d="M3.01431 10.1344C3.48354 8.48754 4.47503 7.03876 5.83872 6.00733C7.20242 4.9759 8.86409 4.41797 10.5723 4.41797C12.2804 4.41797 13.9421 4.9759 15.3058 6.00733C16.6695 7.03876 17.661 8.48754 18.1302 10.1344L18.9573 13.0385C19.2938 14.22 19.8125 15.3421 20.4914 16.3661L20.6545 16.6084C20.8605 16.9205 20.9642 17.0751 21.0146 17.1895C21.1067 17.3964 21.1503 17.6216 21.1422 17.848C21.1341 18.0744 21.0745 18.2959 20.968 18.4957C20.8614 18.6955 20.7107 18.8681 20.5274 19.0006C20.3441 19.133 20.1331 19.2217 19.9104 19.2598C19.7859 19.2806 19.5991 19.2806 19.2271 19.2806H1.91597C1.54393 19.2806 1.35717 19.2806 1.23414 19.2598C1.01131 19.2219 0.800083 19.1333 0.61661 19.001C0.433138 18.8686 0.282281 18.696 0.175578 18.4962C0.0688739 18.2964 0.00914918 18.0748 0.000970779 17.8483C-0.00720762 17.6218 0.0363766 17.3965 0.128391 17.1895C0.178787 17.0751 0.282544 16.919 0.490058 16.6084L0.651622 16.3661C1.33163 15.3426 1.84916 14.2196 2.18574 13.037L3.01431 10.1344Z" fill="#8D8D8D"/>
<path d="M9.09082 5.9039L10.5731 2L9.09082 5.9039ZM12.0553 5.9039L10.5731 2L12.0553 5.9039ZM11.3142 23.7386H9.83194H11.3142Z" fill="#8D8D8D"/>
<path d="M9.09082 5.9039L10.5731 2L12.0553 5.9039M11.3142 23.7386H9.83194" stroke="#8D8D8D" stroke-width="4" stroke-linecap="round" stroke-linejoin="round"/>
</svg>
