<svg width="292" height="60" viewBox="0 0 292 60" fill="none" xmlns="http://www.w3.org/2000/svg">
<g clip-path="url(#clip0_2951_55374)">
<path d="M38.3261 25.0625L32.2468 29.9118L31.0408 30.8805L23.3095 37.0453L15.4901 30.842L14.2732 29.8732L8.21036 25.0625H0.258789V58.8917H8.2434V35.35L12.858 38.7901L14.3007 39.8635L21.3932 45.1476H25.2313L32.1642 39.9791L33.6014 38.9112L38.3812 35.35V58.8917H46.3603V25.0625H38.3261Z" fill="#212121"/>
<path d="M23.2887 24.8906L23.0395 25.4262L22.7903 24.8906L13.3652 29.3469V59.0939H14.7992V30.2672L23.0395 26.3696L31.2816 30.2672V59.0939H32.7137V29.3469L23.2887 24.8906Z" fill="#999999"/>
<path d="M22.2808 25.7002C21.8684 23.7779 19.3901 23.0864 17.205 22.4764C16.4433 22.2636 15.7237 22.0614 15.1216 21.8149C12.6504 20.8059 9.84925 19.6621 8.27666 16.9171C7.25166 15.1278 7.25342 12.8084 8.27841 11.0102C9.20336 9.39123 10.7654 8.48863 12.6136 8.5897C16.0027 8.75994 18.7319 11.7107 20.9539 17.6087C21.5682 19.2401 22.1457 20.9017 22.6687 22.5455C22.76 22.831 22.9004 23.1449 23.0443 23.4694C23.3391 24.1344 23.6428 24.8242 23.6937 25.4892L22.279 25.6984L22.2808 25.7002ZM12.3556 10.0314C10.7338 10.0314 9.88435 11.0989 9.52104 11.7355C8.74527 13.0921 8.74352 14.8423 9.51753 16.1918C10.8444 18.5077 13.2928 19.5061 15.6605 20.4743C16.1853 20.6889 16.8662 20.8786 17.5876 21.0808C18.7284 21.3982 19.9991 21.7546 21.0908 22.3221C20.6327 20.9212 20.1378 19.5132 19.6165 18.1247C17.6192 12.8208 15.3059 10.175 12.5434 10.0349L12.3573 10.0296L12.3556 10.0314Z" fill="#999999"/>
<path d="M24.0631 25.7016L22.6484 25.4924C22.6993 24.8256 23.0047 24.1358 23.2996 23.469C23.4418 23.1463 23.5822 22.8342 23.6734 22.5487C24.2035 20.8889 24.7809 19.2273 25.3882 17.6119C27.6102 11.7139 30.3394 8.76313 33.7285 8.59289C35.5679 8.49714 37.1405 9.39442 38.0655 11.017C39.0905 12.8151 39.0905 15.131 38.0655 16.9203C36.4894 19.6689 33.6899 20.8109 31.2205 21.8181C30.6185 22.0646 29.8989 22.265 29.1371 22.4778C26.952 23.0896 24.4738 23.7811 24.0596 25.7034L24.0631 25.7016ZM33.9866 10.0328L33.8005 10.0381C31.0397 10.1764 28.7264 12.824 26.7291 18.1279C26.2113 19.5022 25.7164 20.912 25.2548 22.3235C26.3465 21.756 27.6172 21.3996 28.758 21.0822C29.4794 20.88 30.1604 20.6903 30.6852 20.4757C33.0511 19.5093 35.4977 18.5109 36.8263 16.1932C37.6004 14.8455 37.6004 13.0953 36.8246 11.7387C36.463 11.1003 35.61 10.0328 33.9866 10.0328Z" fill="#999999"/>
</g>
<path d="M56.5947 25.0312H64.5774V59.1087H56.5947V25.0312Z" fill="#212121"/>
<path d="M93.2983 52.2961V59.1087H75.7256V25.0312H83.6098V52.2961H93.2983Z" fill="#212121"/>
<path d="M119.987 52.2961V59.1087H102.414V25.0312H110.298V52.2961H119.987Z" fill="#212121"/>
<path d="M136.989 31.359V39.0974H149.889V45.2794H136.989V52.7773H149.889V59.1051H129.102V25.0312H149.889V31.359H136.989Z" fill="#212121"/>
<path d="M173.251 25.0312C184.543 25.0312 190.97 33.3565 190.97 42.0718C190.97 50.7871 184.594 59.1087 173.251 59.1087H160.741V25.0312H173.251ZM168.625 31.8475V52.2925H172.861C179.24 52.2925 182.939 47.3279 182.939 42.0682C182.939 36.8084 179.24 31.8475 172.861 31.8475H168.625Z" fill="#212121"/>
<path d="M198.722 42.0755C198.722 32.7296 205.439 24.1602 216.783 24.1602C228.126 24.1602 234.793 32.7296 234.793 42.0755C234.793 51.4214 228.075 59.9909 216.783 59.9909C205.491 59.9909 198.722 51.4214 198.722 42.0755ZM226.763 42.0755C226.763 36.4767 222.965 31.2716 216.783 31.2716C210.601 31.2716 206.803 36.4804 206.803 42.0755C206.803 47.6706 210.55 52.883 216.783 52.883C223.016 52.883 226.763 47.6743 226.763 42.0755Z" fill="#212121"/>
<path d="M264.794 47.2295V25.0312H272.635V59.1087H264.404L252.135 37.2057V59.1087H244.251V25.0312H252.478L264.794 47.2295Z" fill="#212121"/>
<path d="M283.788 25.0312H291.771V59.1087H283.788V25.0312Z" fill="#212121"/>
<defs>
<clipPath id="clip0_2951_55374">
<rect width="46.3603" height="58.8901" fill="white"/>
</clipPath>
</defs>
</svg>
