<svg width="25" height="34" viewBox="0 0 25 34" fill="none" xmlns="http://www.w3.org/2000/svg">
<path d="M12.2278 0C13.6176 0 14.9505 0.552119 15.9333 1.5349C16.9161 2.51768 17.4682 3.85061 17.4682 5.24047V15.7214C17.4682 17.1113 16.9161 18.4442 15.9333 19.427C14.9505 20.4097 13.6176 20.9619 12.2278 20.9619C10.8379 20.9619 9.50496 20.4097 8.52218 19.427C7.5394 18.4442 6.98729 17.1113 6.98729 15.7214V5.24047C6.98729 3.85061 7.5394 2.51768 8.52218 1.5349C9.50496 0.552119 10.8379 0 12.2278 0ZM24.4555 15.7214C24.4555 21.8877 19.8963 26.9709 13.9746 27.8269V33.1896H10.4809V27.8269C4.5592 26.9709 0 21.8877 0 15.7214H3.49364C3.49364 18.0378 4.41384 20.2594 6.0518 21.8973C7.68977 23.5353 9.91132 24.4555 12.2278 24.4555C14.5442 24.4555 16.7657 23.5353 18.4037 21.8973C20.0417 20.2594 20.9619 18.0378 20.9619 15.7214H24.4555Z" fill="#A3A3A3"/>
</svg>
