<svg width="23" height="24" viewBox="0 0 23 24" fill="none" xmlns="http://www.w3.org/2000/svg">
<path d="M10.35 13.8373V23.0618H5.75C4.835 23.0618 3.95748 22.6973 3.31048 22.0486C2.66348 21.3999 2.3 20.52 2.3 19.6026V14.9904C2.3 14.6846 2.42116 14.3913 2.63683 14.1751C2.85249 13.9588 3.145 13.8373 3.45 13.8373H10.35ZM19.55 13.8373C19.855 13.8373 20.1475 13.9588 20.3632 14.1751C20.5788 14.3913 20.7 14.6846 20.7 14.9904V19.6026C20.7 20.52 20.3365 21.3999 19.6895 22.0486C19.0425 22.6973 18.165 23.0618 17.25 23.0618H12.65V13.8373H19.55ZM16.675 0.000676722C17.3541 0.00053619 18.0222 0.172674 18.6171 0.501065C19.212 0.829457 19.7143 1.30343 20.0774 1.87885C20.4404 2.45427 20.6523 3.11244 20.6934 3.79209C20.7346 4.47173 20.6035 5.15076 20.3125 5.76595H20.7C21.31 5.76595 21.895 6.00892 22.3263 6.44139C22.7577 6.87387 23 7.46044 23 8.07206V9.22511C23 9.83673 22.7577 10.4233 22.3263 10.8558C21.895 11.2883 21.31 11.5312 20.7 11.5312H12.65V5.76595H10.35V11.5312H2.3C1.69 11.5312 1.10499 11.2883 0.673654 10.8558C0.242321 10.4233 0 9.83673 0 9.22511V8.07206C0 7.46044 0.242321 6.87387 0.673654 6.44139C1.10499 6.00892 1.69 5.76595 2.3 5.76595H2.68755C2.43212 5.22535 2.29974 4.63457 2.3 4.03637C2.3 1.80751 4.10205 0.000676722 6.30545 0.000676722C8.3237 -0.0339149 10.1143 1.25981 11.3436 3.38374L11.5 3.66393C12.688 1.45699 14.444 0.0733193 16.4347 0.00298294L16.675 0.000676722ZM6.325 2.30679C5.8675 2.30679 5.42874 2.48901 5.10524 2.81337C4.78174 3.13773 4.6 3.57766 4.6 4.03637C4.6 4.49508 4.78174 4.93501 5.10524 5.25937C5.42874 5.58373 5.8675 5.76595 6.325 5.76595H9.93945C9.0873 3.56938 7.6981 2.28373 6.325 2.30679ZM16.6554 2.30679C15.2984 2.28373 13.9127 3.57053 13.0605 5.76595H16.675C17.1325 5.76335 17.5702 5.57864 17.8919 5.25244C18.2136 4.92624 18.3928 4.48528 18.3902 4.02657C18.3876 3.56785 18.2034 3.12896 17.8781 2.80644C17.5527 2.48392 17.1129 2.30419 16.6554 2.30679Z" fill="#8D8D8D"/>
</svg>
